<mxfile host="app.diagrams.net" agent="Mozilla/5.0 (X11; Linux x86_64; rv:142.0) Gecko/20100101 Firefox/142.0" version="28.2.5">
  <diagram name="Página-1" id="bMyUL35T9K2gsyR5ZAPP">
    <mxGraphModel dx="723" dy="755" grid="1" gridSize="10" guides="1" tooltips="1" connect="1" arrows="1" fold="1" page="1" pageScale="1" pageWidth="827" pageHeight="1169" math="0" shadow="0">
      <root>
        <mxCell id="0" />
        <mxCell id="1" parent="0" />
        <mxCell id="mT6769CBmY15x5PX0W7P-1" value="AEROPUERTO" style="swimlane;childLayout=stackLayout;horizontal=1;startSize=50;horizontalStack=0;rounded=1;fontSize=14;fontStyle=0;strokeWidth=2;resizeParent=0;resizeLast=1;shadow=0;dashed=0;align=center;arcSize=4;whiteSpace=wrap;html=1;fillColor=#1ba1e2;fontColor=#ffffff;strokeColor=#006EAF;" parent="1" vertex="1">
          <mxGeometry x="50" y="50" width="160" height="120" as="geometry" />
        </mxCell>
        <mxCell id="mT6769CBmY15x5PX0W7P-2" value="&lt;div&gt;CODIGO&lt;/div&gt;&lt;div&gt;NOMBRE&lt;/div&gt;&lt;div&gt;CIUDAD&lt;/div&gt;&lt;div&gt;PAIS&lt;/div&gt;" style="align=left;strokeColor=none;fillColor=none;spacingLeft=4;spacingRight=4;fontSize=12;verticalAlign=top;resizable=0;rotatable=0;part=1;html=1;whiteSpace=wrap;" parent="mT6769CBmY15x5PX0W7P-1" vertex="1">
          <mxGeometry y="50" width="160" height="70" as="geometry" />
        </mxCell>
        <mxCell id="mT6769CBmY15x5PX0W7P-3" value="&lt;div&gt;AVIONES&lt;/div&gt;" style="swimlane;childLayout=stackLayout;horizontal=1;startSize=50;horizontalStack=0;rounded=1;fontSize=14;fontStyle=0;strokeWidth=2;resizeParent=0;resizeLast=1;shadow=0;dashed=0;align=center;arcSize=4;whiteSpace=wrap;html=1;fillColor=#1ba1e2;fontColor=#ffffff;strokeColor=#006EAF;" parent="1" vertex="1">
          <mxGeometry x="444" y="20" width="160" height="120" as="geometry" />
        </mxCell>
        <mxCell id="mT6769CBmY15x5PX0W7P-4" value="&lt;div&gt;Nº PLAZAS&lt;/div&gt;" style="align=left;strokeColor=none;fillColor=none;spacingLeft=4;spacingRight=4;fontSize=12;verticalAlign=top;resizable=0;rotatable=0;part=1;html=1;whiteSpace=wrap;" parent="mT6769CBmY15x5PX0W7P-3" vertex="1">
          <mxGeometry y="50" width="160" height="70" as="geometry" />
        </mxCell>
        <mxCell id="mT6769CBmY15x5PX0W7P-10" style="edgeStyle=orthogonalEdgeStyle;rounded=0;orthogonalLoop=1;jettySize=auto;html=1;exitX=0.106;exitY=-0.033;exitDx=0;exitDy=0;exitPerimeter=0;" parent="1" source="mT6769CBmY15x5PX0W7P-5" target="mT6769CBmY15x5PX0W7P-8" edge="1">
          <mxGeometry relative="1" as="geometry">
            <mxPoint x="100" y="450" as="sourcePoint" />
          </mxGeometry>
        </mxCell>
        <mxCell id="mT6769CBmY15x5PX0W7P-12" style="edgeStyle=orthogonalEdgeStyle;rounded=0;orthogonalLoop=1;jettySize=auto;html=1;entryX=0.5;entryY=1;entryDx=0;entryDy=0;exitX=0.644;exitY=0.025;exitDx=0;exitDy=0;exitPerimeter=0;" parent="1" source="mT6769CBmY15x5PX0W7P-5" target="mT6769CBmY15x5PX0W7P-9" edge="1">
          <mxGeometry relative="1" as="geometry" />
        </mxCell>
        <mxCell id="mT6769CBmY15x5PX0W7P-5" value="TRAYECTO" style="swimlane;childLayout=stackLayout;horizontal=1;startSize=50;horizontalStack=0;rounded=1;fontSize=14;fontStyle=0;strokeWidth=2;resizeParent=0;resizeLast=1;shadow=0;dashed=0;align=center;arcSize=4;whiteSpace=wrap;html=1;fillColor=#1ba1e2;fontColor=#ffffff;strokeColor=#006EAF;" parent="1" vertex="1">
          <mxGeometry x="120" y="510" width="160" height="120" as="geometry" />
        </mxCell>
        <mxCell id="mT6769CBmY15x5PX0W7P-6" value="&lt;div&gt;COMPAÑIA&lt;/div&gt;&lt;div&gt;RUTA AEREA&lt;/div&gt;&lt;div&gt;DIAS DE LA SEMANA&lt;/div&gt;" style="align=left;strokeColor=none;fillColor=none;spacingLeft=4;spacingRight=4;fontSize=12;verticalAlign=top;resizable=0;rotatable=0;part=1;html=1;whiteSpace=wrap;" parent="mT6769CBmY15x5PX0W7P-5" vertex="1">
          <mxGeometry y="50" width="160" height="70" as="geometry" />
        </mxCell>
        <mxCell id="mT6769CBmY15x5PX0W7P-11" style="edgeStyle=orthogonalEdgeStyle;rounded=0;orthogonalLoop=1;jettySize=auto;html=1;entryX=0.25;entryY=1;entryDx=0;entryDy=0;" parent="1" source="mT6769CBmY15x5PX0W7P-8" target="mT6769CBmY15x5PX0W7P-2" edge="1">
          <mxGeometry relative="1" as="geometry" />
        </mxCell>
        <mxCell id="mT6769CBmY15x5PX0W7P-8" value="ATERRIZA" style="rhombus;whiteSpace=wrap;html=1;fillColor=#f0a30a;fontColor=#000000;strokeColor=#BD7000;" parent="1" vertex="1">
          <mxGeometry x="40" y="295" width="80" height="80" as="geometry" />
        </mxCell>
        <mxCell id="mT6769CBmY15x5PX0W7P-9" value="DESPEGA" style="rhombus;whiteSpace=wrap;html=1;fillColor=#f0a30a;fontColor=#000000;strokeColor=#BD7000;" parent="1" vertex="1">
          <mxGeometry x="150" y="330" width="80" height="80" as="geometry" />
        </mxCell>
        <mxCell id="mT6769CBmY15x5PX0W7P-13" style="edgeStyle=orthogonalEdgeStyle;rounded=0;orthogonalLoop=1;jettySize=auto;html=1;entryX=0.594;entryY=1.029;entryDx=0;entryDy=0;entryPerimeter=0;" parent="1" source="mT6769CBmY15x5PX0W7P-9" target="mT6769CBmY15x5PX0W7P-2" edge="1">
          <mxGeometry relative="1" as="geometry" />
        </mxCell>
        <mxCell id="mT6769CBmY15x5PX0W7P-14" value="1" style="text;html=1;align=center;verticalAlign=middle;resizable=0;points=[];autosize=1;strokeColor=none;fillColor=none;" parent="1" vertex="1">
          <mxGeometry x="230" y="480" width="30" height="30" as="geometry" />
        </mxCell>
        <mxCell id="mT6769CBmY15x5PX0W7P-15" value="N" style="text;html=1;align=center;verticalAlign=middle;resizable=0;points=[];autosize=1;strokeColor=none;fillColor=none;" parent="1" vertex="1">
          <mxGeometry x="530" y="460" width="30" height="30" as="geometry" />
        </mxCell>
        <mxCell id="mT6769CBmY15x5PX0W7P-16" value="N" style="text;html=1;align=center;verticalAlign=middle;resizable=0;points=[];autosize=1;strokeColor=none;fillColor=none;" parent="1" vertex="1">
          <mxGeometry x="50" y="170" width="30" height="30" as="geometry" />
        </mxCell>
        <mxCell id="mT6769CBmY15x5PX0W7P-17" value="N" style="text;html=1;align=center;verticalAlign=middle;resizable=0;points=[];autosize=1;strokeColor=none;fillColor=none;" parent="1" vertex="1">
          <mxGeometry x="150" y="170" width="30" height="30" as="geometry" />
        </mxCell>
        <mxCell id="mT6769CBmY15x5PX0W7P-21" style="edgeStyle=orthogonalEdgeStyle;rounded=0;orthogonalLoop=1;jettySize=auto;html=1;entryX=0;entryY=1;entryDx=0;entryDy=0;" parent="1" source="mT6769CBmY15x5PX0W7P-18" target="mT6769CBmY15x5PX0W7P-20" edge="1">
          <mxGeometry relative="1" as="geometry" />
        </mxCell>
        <mxCell id="mT6769CBmY15x5PX0W7P-18" value="VUELO" style="swimlane;childLayout=stackLayout;horizontal=1;startSize=50;horizontalStack=0;rounded=1;fontSize=14;fontStyle=0;strokeWidth=2;resizeParent=0;resizeLast=1;shadow=0;dashed=0;align=center;arcSize=4;whiteSpace=wrap;html=1;fillColor=#1ba1e2;fontColor=#ffffff;strokeColor=#006EAF;" parent="1" vertex="1">
          <mxGeometry x="530" y="340" width="160" height="120" as="geometry" />
        </mxCell>
        <mxCell id="mT6769CBmY15x5PX0W7P-19" value="+Attribute1&#xa;+Attribute2&#xa;+Attribute3" style="align=left;strokeColor=none;fillColor=none;spacingLeft=4;spacingRight=4;fontSize=12;verticalAlign=top;resizable=0;rotatable=0;part=1;html=1;whiteSpace=wrap;" parent="mT6769CBmY15x5PX0W7P-18" vertex="1">
          <mxGeometry y="50" width="160" height="70" as="geometry" />
        </mxCell>
        <mxCell id="mT6769CBmY15x5PX0W7P-20" value="TIENE" style="rhombus;whiteSpace=wrap;html=1;fillColor=#f0a30a;fontColor=#000000;strokeColor=#BD7000;" parent="1" vertex="1">
          <mxGeometry x="550" y="180" width="70" height="70" as="geometry" />
        </mxCell>
        <mxCell id="mT6769CBmY15x5PX0W7P-22" style="edgeStyle=orthogonalEdgeStyle;rounded=0;orthogonalLoop=1;jettySize=auto;html=1;entryX=0.563;entryY=1;entryDx=0;entryDy=0;entryPerimeter=0;" parent="1" source="mT6769CBmY15x5PX0W7P-20" target="mT6769CBmY15x5PX0W7P-4" edge="1">
          <mxGeometry relative="1" as="geometry" />
        </mxCell>
        <mxCell id="mT6769CBmY15x5PX0W7P-27" style="edgeStyle=orthogonalEdgeStyle;rounded=0;orthogonalLoop=1;jettySize=auto;html=1;entryX=0.25;entryY=1;entryDx=0;entryDy=0;" parent="1" source="mT6769CBmY15x5PX0W7P-25" target="mT6769CBmY15x5PX0W7P-18" edge="1">
          <mxGeometry relative="1" as="geometry" />
        </mxCell>
        <mxCell id="mT6769CBmY15x5PX0W7P-25" value="DEPENDE" style="rhombus;whiteSpace=wrap;html=1;fillColor=#f0a30a;fontColor=#000000;strokeColor=#BD7000;" parent="1" vertex="1">
          <mxGeometry x="435" y="520" width="80" height="80" as="geometry" />
        </mxCell>
        <mxCell id="mT6769CBmY15x5PX0W7P-26" style="edgeStyle=orthogonalEdgeStyle;rounded=0;orthogonalLoop=1;jettySize=auto;html=1;" parent="1" source="mT6769CBmY15x5PX0W7P-6" target="mT6769CBmY15x5PX0W7P-25" edge="1">
          <mxGeometry relative="1" as="geometry" />
        </mxCell>
        <mxCell id="mT6769CBmY15x5PX0W7P-28" value="1" style="text;html=1;align=center;verticalAlign=middle;resizable=0;points=[];autosize=1;strokeColor=none;fillColor=none;" parent="1" vertex="1">
          <mxGeometry x="140" y="480" width="30" height="30" as="geometry" />
        </mxCell>
        <mxCell id="mT6769CBmY15x5PX0W7P-29" value="1" style="text;html=1;align=center;verticalAlign=middle;resizable=0;points=[];autosize=1;strokeColor=none;fillColor=none;" parent="1" vertex="1">
          <mxGeometry x="280" y="570" width="30" height="30" as="geometry" />
        </mxCell>
        <mxCell id="wHc5NCfKxvR4DbOolrVX-3" style="edgeStyle=orthogonalEdgeStyle;rounded=0;orthogonalLoop=1;jettySize=auto;html=1;entryX=0;entryY=0.25;entryDx=0;entryDy=0;" edge="1" parent="1" source="wHc5NCfKxvR4DbOolrVX-1" target="mT6769CBmY15x5PX0W7P-4">
          <mxGeometry relative="1" as="geometry" />
        </mxCell>
        <mxCell id="wHc5NCfKxvR4DbOolrVX-1" value="ATERRIZA" style="rhombus;whiteSpace=wrap;html=1;fillColor=#f0a30a;fontColor=#000000;strokeColor=#BD7000;" vertex="1" parent="1">
          <mxGeometry x="280" y="60" width="80" height="80" as="geometry" />
        </mxCell>
        <mxCell id="wHc5NCfKxvR4DbOolrVX-2" style="edgeStyle=orthogonalEdgeStyle;rounded=0;orthogonalLoop=1;jettySize=auto;html=1;entryX=0.113;entryY=0.475;entryDx=0;entryDy=0;entryPerimeter=0;" edge="1" parent="1" source="mT6769CBmY15x5PX0W7P-2" target="wHc5NCfKxvR4DbOolrVX-1">
          <mxGeometry relative="1" as="geometry" />
        </mxCell>
        <mxCell id="wHc5NCfKxvR4DbOolrVX-4" value="N" style="text;html=1;align=center;verticalAlign=middle;resizable=0;points=[];autosize=1;strokeColor=none;fillColor=none;" vertex="1" parent="1">
          <mxGeometry x="574" y="310" width="30" height="30" as="geometry" />
        </mxCell>
        <mxCell id="wHc5NCfKxvR4DbOolrVX-5" value="1" style="text;html=1;align=center;verticalAlign=middle;resizable=0;points=[];autosize=1;strokeColor=none;fillColor=none;" vertex="1" parent="1">
          <mxGeometry x="530" y="160" width="30" height="30" as="geometry" />
        </mxCell>
      </root>
    </mxGraphModel>
  </diagram>
</mxfile>
